<svg width="160" height="161" viewBox="0 0 160 161" fill="none" xmlns="http://www.w3.org/2000/svg">
<g clip-path="url(#clip0_1117_1618)">
<path d="M26.6973 149.176C29.2031 143.996 31.4436 138.135 33.3403 131.663C33.6999 130.434 32.8437 129.07 31.5515 128.814C22.6837 127.045 13.472 124.67 3.99522 121.622C1.90299 120.95 1.78389 117.97 3.83342 117.521C29.6615 111.86 50.1703 93.4749 58.5998 68.0918C59.0965 66.5996 61.0359 66.3366 62.1258 67.6198L87.7809 97.8616C88.282 98.4504 88.4686 99.2392 88.2618 99.9314C79.9648 127.697 57.4402 147.551 29.1177 152.347C27.3985 152.637 25.9445 150.729 26.6973 149.174V149.176Z" fill="url(#paint0_linear_1117_1618)"/>
<path d="M133.021 149.176C130.515 143.996 128.274 138.135 126.378 131.663C126.018 130.434 126.874 129.07 128.166 128.814C137.034 127.045 146.246 124.67 155.723 121.622C157.815 120.95 157.934 117.97 155.884 117.521C130.056 111.86 109.548 93.4749 101.118 68.0918C100.621 66.5996 98.682 66.3366 97.592 67.6198L71.937 97.8616C71.4358 98.4504 71.2493 99.2392 71.4561 99.9314C79.753 127.697 102.278 147.551 130.6 152.347C132.319 152.637 133.773 150.729 133.021 149.174V149.176Z" fill="url(#paint1_linear_1117_1618)"/>
<path d="M82.7403 91.9141C80.2772 97.757 73.2702 111.762 58.4493 124.369C48.2871 133.015 37.2147 138.26 30.2076 141.013C29.8413 141.975 29.466 142.919 29.084 143.844C36.0416 141.271 48.532 135.759 59.9056 126.082C70.2004 117.324 76.7265 107.946 80.3896 101.622C82.1874 98.5188 83.4819 95.8513 84.3695 93.8377L82.7403 91.9163V91.9141Z" fill="url(#paint2_linear_1117_1618)"/>
<path d="M67.8443 85.0889C69.3208 82.5383 70.4579 80.282 71.3096 78.4392L69.6916 76.5312C66.8443 82.9225 59.8058 96.0108 45.904 107.836C34.8586 117.234 22.7345 122.612 15.9297 125.142C17.1679 125.475 18.4017 125.799 19.631 126.109C26.8358 123.178 37.5171 117.922 47.3603 109.548C57.6551 100.791 64.1812 91.4128 67.8443 85.0889Z" fill="url(#paint3_linear_1117_1618)"/>
<path d="M76.9828 91.9141C79.4458 97.757 86.4529 111.762 101.274 124.369C111.436 133.015 122.508 138.26 129.515 141.013C129.882 141.975 130.257 142.919 130.639 143.844C123.681 141.271 111.191 135.759 99.8175 126.082C89.5227 117.324 82.9965 107.946 79.3335 101.622C77.5356 98.5188 76.2412 95.8513 75.3535 93.8377L76.9828 91.9163V91.9141Z" fill="url(#paint4_linear_1117_1618)"/>
<path d="M91.8774 85.0889C90.401 82.5383 89.2638 80.282 88.4121 78.4392L90.0302 76.5312C92.8775 82.9225 99.916 96.0108 113.818 107.836C124.863 117.234 136.987 122.612 143.792 125.142C142.554 125.475 141.32 125.799 140.091 126.109C132.886 123.178 122.205 117.922 112.361 109.548C102.067 100.791 95.5405 91.4128 91.8774 85.0889Z" fill="url(#paint5_linear_1117_1618)"/>
<path d="M138.377 85.4883L132.511 95.5966C130.531 99.0103 129.012 102.673 128.001 106.487L125.001 117.786C124.025 121.461 121.156 124.328 117.484 125.304L106.184 128.304C102.371 129.317 98.7075 130.834 95.2939 132.814L85.1856 138.679C81.8978 140.587 77.8415 140.587 74.5537 138.679L64.4454 132.814C61.0317 130.834 57.3687 129.315 53.555 128.304L42.2556 125.304C38.5813 124.328 35.7138 121.458 34.7385 117.786L31.7383 106.487C30.7248 102.673 29.2079 99.0103 27.228 95.5966L21.3626 85.4883C19.4547 82.2006 19.4547 78.1442 21.3626 74.8564L27.228 64.7481C29.2079 61.3345 30.7271 57.6714 31.7383 53.8577L34.7385 42.5584C35.7138 38.8841 38.5836 36.0165 42.2556 35.0412L53.555 32.0411C57.3687 31.0275 61.0317 29.5106 64.4454 27.5308L74.5537 21.6653C77.8415 19.7574 81.8978 19.7574 85.1856 21.6653L95.2939 27.5308C98.7075 29.5106 102.371 31.0298 106.184 32.0411L117.484 35.0412C121.158 36.0165 124.025 38.8863 125.001 42.5584L128.001 53.8577C129.014 57.6714 130.531 61.3345 132.511 64.7481L138.377 74.8564C140.285 78.1442 140.285 82.2006 138.377 85.4883Z" fill="url(#paint6_linear_1117_1618)"/>
<path d="M138.377 75.8008L132.511 85.9091C130.531 89.3228 129.012 92.9859 128.001 96.7995L125.001 108.099C124.025 111.773 121.156 114.641 117.484 115.616L106.184 118.616C102.371 119.63 98.7075 121.147 95.2939 123.126L85.1856 128.992C81.8978 130.9 77.8415 130.9 74.5537 128.992L64.4454 123.126C61.0317 121.147 57.3687 119.627 53.555 118.616L42.2556 115.616C38.5813 114.641 35.7138 111.771 34.7385 108.099L31.7383 96.7995C30.7248 92.9859 29.2079 89.3228 27.228 85.9091L21.3626 75.8008C19.4547 72.5131 19.4547 68.4567 21.3626 65.1689L27.228 55.0606C29.2079 51.647 30.7271 47.9839 31.7383 44.1702L34.7385 32.8709C35.7138 29.1966 38.5836 26.329 42.2556 25.3537L53.555 22.3536C57.3687 21.34 61.0317 19.8231 64.4454 17.8433L74.5537 11.9778C77.8415 10.0699 81.8978 10.0699 85.1856 11.9778L95.2939 17.8433C98.7075 19.8231 102.371 21.3423 106.184 22.3536L117.484 25.3537C121.158 26.329 124.025 29.1988 125.001 32.8709L128.001 44.1702C129.014 47.9839 130.531 51.647 132.511 55.0606L138.377 65.1689C140.285 68.4567 140.285 72.5131 138.377 75.8008Z" fill="url(#paint7_linear_1117_1618)" stroke="url(#paint8_linear_1117_1618)" stroke-width="1.12364" stroke-miterlimit="10"/>
<path d="M79.858 121.091C107.277 121.091 129.505 98.8633 129.505 71.444C129.505 44.0246 107.277 21.7969 79.858 21.7969C52.4387 21.7969 30.2109 44.0246 30.2109 71.444C30.2109 98.8633 52.4387 121.091 79.858 121.091Z" fill="url(#paint9_linear_1117_1618)"/>
<path d="M79.8585 115.573C104.231 115.573 123.989 95.8148 123.989 71.4425C123.989 47.0702 104.231 27.3125 79.8585 27.3125C55.4862 27.3125 35.7285 47.0702 35.7285 71.4425C35.7285 95.8148 55.4862 115.573 79.8585 115.573Z" fill="url(#paint10_linear_1117_1618)"/>
<g filter="url(#filter0_d_1117_1618)">
<path d="M58.4115 97.0967V68.673H48.1953V62.5829C51.2943 62.5402 53.8607 61.7536 55.89 60.2255C57.9193 58.6973 59.1531 56.8208 59.5913 54.5938H67.3849V97.099H58.4115V97.0967Z" fill="url(#paint11_linear_1117_1618)" stroke="url(#paint12_linear_1117_1618)" stroke-width="0.674187" stroke-miterlimit="10"/>
<path d="M73.8672 75.8778C73.8672 73.1271 74.1301 70.4753 74.6537 67.9201C75.1774 65.3649 76.1594 62.9761 77.5999 60.749C78.9977 58.6523 80.8518 56.9399 83.1665 55.6072C85.4812 54.2768 88.297 53.6094 91.6163 53.6094C94.9355 53.6094 97.7401 54.2746 100.032 55.6072C102.325 56.9399 104.17 58.6523 105.567 60.749C107.008 62.9761 108.001 65.3672 108.547 67.9201C109.093 70.4753 109.365 73.1271 109.365 75.8778C109.365 78.6284 109.091 81.2802 108.547 83.8354C108.001 86.3906 107.008 88.7794 105.567 91.0065C104.17 93.1032 102.325 94.8157 100.032 96.1483C97.7401 97.4787 94.9333 98.1461 91.6163 98.1461C88.2993 98.1461 85.4812 97.481 83.1665 96.1483C80.8518 94.8179 78.9955 93.1032 77.5999 91.0065C76.1594 88.7794 75.1774 86.3883 74.6537 83.8354C74.1301 81.2802 73.8672 78.6284 73.8672 75.8778ZM82.9035 75.8778C82.9035 78.1048 83.0766 80.1454 83.4271 82.0016C83.7755 83.8579 84.3665 85.4197 85.1958 86.685C85.8497 87.7322 86.7015 88.5749 87.7509 89.2064C88.7982 89.8402 90.0859 90.157 91.614 90.157C93.1422 90.157 94.4726 89.8402 95.4794 89.2064C96.4839 88.5749 97.3131 87.7322 97.9671 86.685C98.8391 85.4197 99.4503 83.8579 99.8009 82.0016C100.149 80.1454 100.325 78.1048 100.325 75.8778C100.325 73.6507 100.149 71.6102 99.8009 69.7539C99.4503 67.8976 98.8391 66.338 97.9671 65.0705C97.3131 64.0233 96.4816 63.1828 95.4794 62.5491C94.4748 61.9176 93.1871 61.5985 91.614 61.5985C90.0409 61.5985 88.7982 61.9154 87.7509 62.5491C86.7037 63.1828 85.852 64.0233 85.1958 65.0705C84.3665 66.338 83.7755 67.8976 83.4271 69.7539C83.0766 71.6102 82.9035 73.6507 82.9035 75.8778Z" fill="url(#paint13_linear_1117_1618)" stroke="url(#paint14_linear_1117_1618)" stroke-width="0.674187" stroke-miterlimit="10"/>
</g>
<path d="M81.0388 34.8463L82.4388 37.2284C82.5602 37.4374 82.7827 37.5812 83.0366 37.6194L86.048 38.0712C86.7087 38.17 87.021 38.9161 86.5783 39.3589L84.4996 41.4488C84.3198 41.6309 84.2411 41.8871 84.2928 42.141L84.9086 45.2423C85.0479 45.9434 84.331 46.4805 83.6771 46.1569L80.7264 44.7007C80.4792 44.5793 80.1893 44.5793 79.9421 44.7007L76.9914 46.1569C76.3374 46.4805 75.6205 45.9434 75.7599 45.2423L76.3756 42.141C76.4251 41.8871 76.3487 41.6286 76.1689 41.4488L74.0901 39.3589C73.6497 38.9161 73.9598 38.17 74.6205 38.0712L77.6319 37.6194C77.8858 37.5812 78.1083 37.4352 78.2296 37.2284L79.6297 34.8463C79.9264 34.3429 80.7354 34.3429 81.032 34.8463H81.0388Z" fill="url(#paint15_linear_1117_1618)"/>
<path d="M97.3276 41.7142L97.5995 42.9996C97.6242 43.112 97.7006 43.2108 97.8107 43.267L99.1007 43.9255C99.3838 44.0693 99.4108 44.4536 99.1456 44.5862L97.8939 45.2132C97.786 45.2671 97.7118 45.3727 97.6961 45.4941L97.5051 46.9863C97.4624 47.3234 97.0579 47.4582 96.8107 47.2133L95.7005 46.1098C95.6084 46.0177 95.4758 45.9728 95.3477 45.9907L93.7971 46.202C93.4532 46.2492 93.2105 45.8986 93.3791 45.6042L94.1252 44.2985C94.1858 44.1907 94.1903 44.0648 94.1364 43.9547L93.5162 42.6985C93.3836 42.431 93.6375 42.1434 93.9499 42.1973L95.3769 42.449C95.4983 42.4692 95.6196 42.4378 95.705 42.3636L96.6961 41.5007C96.9051 41.3186 97.2714 41.44 97.3276 41.7119V41.7142Z" fill="url(#paint16_linear_1117_1618)"/>
<path d="M62.3927 41.7142L62.1208 42.9996C62.0961 43.112 62.0197 43.2108 61.9096 43.267L60.6196 43.9255C60.3365 44.0693 60.3095 44.4536 60.5747 44.5862L61.8264 45.2132C61.9343 45.2671 62.0084 45.3727 62.0242 45.4941L62.2152 46.9863C62.2579 47.3234 62.6624 47.4582 62.9096 47.2133L64.0198 46.1098C64.1119 46.0177 64.2445 45.9728 64.3726 45.9907L65.9232 46.202C66.267 46.2492 66.5098 45.8986 66.3412 45.6042L65.5951 44.2985C65.5344 44.1907 65.5299 44.0648 65.5839 43.9547L66.2041 42.6985C66.3367 42.431 66.0828 42.1434 65.7704 42.1973L64.3434 42.449C64.222 42.4692 64.1007 42.4378 64.0153 42.3636L63.0242 41.5007C62.8152 41.3186 62.4489 41.44 62.3927 41.7119V41.7142Z" fill="url(#paint17_linear_1117_1618)"/>
</g>
<defs>
<filter id="filter0_d_1117_1618" x="47.8574" y="53.2734" width="61.8457" height="47.4582" filterUnits="userSpaceOnUse" color-interpolation-filters="sRGB">
<feFlood flood-opacity="0" result="BackgroundImageFix"/>
<feColorMatrix in="SourceAlpha" type="matrix" values="0 0 0 0 0 0 0 0 0 0 0 0 0 0 0 0 0 0 127 0" result="hardAlpha"/>
<feOffset dy="2.24729"/>
<feColorMatrix type="matrix" values="0 0 0 0 0 0 0 0 0 0 0 0 0 0 0 0 0 0 0.2 0"/>
<feBlend mode="normal" in2="BackgroundImageFix" result="effect1_dropShadow_1117_1618"/>
<feBlend mode="normal" in="SourceGraphic" in2="effect1_dropShadow_1117_1618" result="shape"/>
</filter>
<linearGradient id="paint0_linear_1117_1618" x1="-49.9307" y1="106.39" x2="73.8027" y2="110.577" gradientUnits="userSpaceOnUse">
<stop stop-color="#F1AB02"/>
<stop offset="0.42" stop-color="#F1AB02"/>
<stop offset="1" stop-color="#732A03"/>
</linearGradient>
<linearGradient id="paint1_linear_1117_1618" x1="96.3133" y1="101.651" x2="183.879" y2="149.239" gradientUnits="userSpaceOnUse">
<stop stop-color="#732A03"/>
<stop offset="1" stop-color="#F1AB02"/>
</linearGradient>
<linearGradient id="paint2_linear_1117_1618" x1="85.9764" y1="94.5074" x2="21.2365" y2="156.447" gradientUnits="userSpaceOnUse">
<stop stop-color="#FFCF3F"/>
<stop offset="0.38" stop-color="#FECC2D"/>
<stop offset="0.54" stop-color="#FECB25"/>
<stop offset="0.66" stop-color="#FED34B"/>
<stop offset="0.92" stop-color="#FEE8AD"/>
<stop offset="1" stop-color="#FFF0CF"/>
</linearGradient>
<linearGradient id="paint3_linear_1117_1618" x1="71.4782" y1="79.3494" x2="13.3116" y2="134.999" gradientUnits="userSpaceOnUse">
<stop stop-color="#FFCF3F"/>
<stop offset="0.38" stop-color="#FECC2D"/>
<stop offset="0.54" stop-color="#FECB25"/>
<stop offset="0.66" stop-color="#FED34B"/>
<stop offset="0.92" stop-color="#FEE8AD"/>
<stop offset="1" stop-color="#FFF0CF"/>
</linearGradient>
<linearGradient id="paint4_linear_1117_1618" x1="73.7445" y1="94.5074" x2="137.505" y2="155.508" gradientUnits="userSpaceOnUse">
<stop stop-color="#FFCF3F"/>
<stop offset="0.38" stop-color="#FECC2D"/>
<stop offset="0.54" stop-color="#FECB25"/>
<stop offset="0.66" stop-color="#FED34B"/>
<stop offset="0.92" stop-color="#FEE8AD"/>
<stop offset="1" stop-color="#FFF0CF"/>
</linearGradient>
<linearGradient id="paint5_linear_1117_1618" x1="88.2436" y1="79.3494" x2="138.347" y2="127.284" gradientUnits="userSpaceOnUse">
<stop stop-color="#FFCF3F"/>
<stop offset="0.38" stop-color="#FECC2D"/>
<stop offset="0.54" stop-color="#FECB25"/>
<stop offset="0.66" stop-color="#FED34B"/>
<stop offset="0.92" stop-color="#FEE8AD"/>
<stop offset="1" stop-color="#FFF0CF"/>
</linearGradient>
<linearGradient id="paint6_linear_1117_1618" x1="79.8663" y1="27.778" x2="79.8663" y2="136.733" gradientUnits="userSpaceOnUse">
<stop stop-color="#FFD304"/>
<stop offset="0.42" stop-color="#F1AB02"/>
<stop offset="1" stop-color="#732A03"/>
</linearGradient>
<linearGradient id="paint7_linear_1117_1618" x1="79.8663" y1="130.428" x2="79.8663" y2="10.5418" gradientUnits="userSpaceOnUse">
<stop stop-color="#F7D81D"/>
<stop offset="0.1" stop-color="#F4C615"/>
<stop offset="0.3" stop-color="#ED9C04"/>
<stop offset="0.49" stop-color="#E48203"/>
<stop offset="0.76" stop-color="#EA9F05"/>
<stop offset="0.94" stop-color="#F3C816"/>
<stop offset="1" stop-color="#F7D81D"/>
</linearGradient>
<linearGradient id="paint8_linear_1117_1618" x1="79.8663" y1="130.99" x2="79.8663" y2="9.98" gradientUnits="userSpaceOnUse">
<stop stop-color="#FEFFD9"/>
<stop offset="0.07" stop-color="#FDF9C7"/>
<stop offset="0.19" stop-color="#FCEA9A"/>
<stop offset="0.37" stop-color="#FAD253"/>
<stop offset="0.53" stop-color="#F9BA0B"/>
<stop offset="1" stop-color="#FFC33C"/>
</linearGradient>
<linearGradient id="paint9_linear_1117_1618" x1="79.858" y1="20.9384" x2="79.858" y2="120.233" gradientUnits="userSpaceOnUse">
<stop stop-color="#732A03"/>
<stop offset="0.58" stop-color="#F1AB02"/>
<stop offset="1" stop-color="#FFD304"/>
</linearGradient>
<linearGradient id="paint10_linear_1117_1618" x1="79.8585" y1="26.5484" x2="79.8585" y2="114.811" gradientUnits="userSpaceOnUse">
<stop stop-color="#FFD304"/>
<stop offset="0.42" stop-color="#F1AB02"/>
<stop offset="1" stop-color="#732A03"/>
</linearGradient>
<linearGradient id="paint11_linear_1117_1618" x1="49.0403" y1="39.8201" x2="74.7403" y2="106.636" gradientUnits="userSpaceOnUse">
<stop offset="0.41" stop-color="#FFF0CF"/>
<stop offset="0.46" stop-color="#FEE8AD"/>
<stop offset="0.63" stop-color="#FED34B"/>
<stop offset="0.7" stop-color="#FECB25"/>
<stop offset="0.87" stop-color="#FEE735"/>
<stop offset="1" stop-color="#FFF93F"/>
</linearGradient>
<linearGradient id="paint12_linear_1117_1618" x1="47.856" y1="75.8441" x2="67.7198" y2="75.8441" gradientUnits="userSpaceOnUse">
<stop offset="0.41" stop-color="#FFF0CF"/>
<stop offset="0.46" stop-color="#FEE8AD"/>
<stop offset="0.63" stop-color="#FED34B"/>
<stop offset="0.7" stop-color="#FECB25"/>
<stop offset="0.87" stop-color="#FEE735"/>
<stop offset="1" stop-color="#FFF93F"/>
</linearGradient>
<linearGradient id="paint13_linear_1117_1618" x1="74.0245" y1="30.2106" x2="99.7223" y2="97.027" gradientUnits="userSpaceOnUse">
<stop offset="0.41" stop-color="#FFF0CF"/>
<stop offset="0.46" stop-color="#FEE8AD"/>
<stop offset="0.63" stop-color="#FED34B"/>
<stop offset="0.7" stop-color="#FECB25"/>
<stop offset="0.87" stop-color="#FEE735"/>
<stop offset="1" stop-color="#FFF93F"/>
</linearGradient>
<linearGradient id="paint14_linear_1117_1618" x1="73.5301" y1="75.8778" x2="109.702" y2="75.8778" gradientUnits="userSpaceOnUse">
<stop offset="0.41" stop-color="#FFF0CF"/>
<stop offset="0.46" stop-color="#FEE8AD"/>
<stop offset="0.63" stop-color="#FED34B"/>
<stop offset="0.7" stop-color="#FECB25"/>
<stop offset="0.87" stop-color="#FEE735"/>
<stop offset="1" stop-color="#FFF93F"/>
</linearGradient>
<linearGradient id="paint15_linear_1117_1618" x1="80.3376" y1="31.4866" x2="80.3376" y2="67.9421" gradientUnits="userSpaceOnUse">
<stop stop-color="#732A03"/>
<stop offset="0.58" stop-color="#F1AB02"/>
<stop offset="1" stop-color="#FFD304"/>
</linearGradient>
<linearGradient id="paint16_linear_1117_1618" x1="96.3253" y1="31.4845" x2="96.3253" y2="67.94" gradientUnits="userSpaceOnUse">
<stop stop-color="#732A03"/>
<stop offset="0.58" stop-color="#F1AB02"/>
<stop offset="1" stop-color="#FFD304"/>
</linearGradient>
<linearGradient id="paint17_linear_1117_1618" x1="63.395" y1="31.4845" x2="63.395" y2="67.94" gradientUnits="userSpaceOnUse">
<stop stop-color="#732A03"/>
<stop offset="0.58" stop-color="#F1AB02"/>
<stop offset="1" stop-color="#FFD304"/>
</linearGradient>
<clipPath id="clip0_1117_1618">
<rect width="155" height="142.399" fill="white" transform="translate(2.35938 9.97656)"/>
</clipPath>
</defs>
</svg>
